<svg id="Layer_1" enable-background="new 0 0 512 512" height="512" viewBox="0 0 512 512" width="512" xmlns="http://www.w3.org/2000/svg"><g><circle cx="330.06" cy="141.903" fill="#ffd54f" r="52.024"/><path d="m330.06 89.879c-4.862 0-9.563.681-14.027 1.929 21.915 6.124 37.997 26.225 37.997 50.095s-16.082 43.971-37.997 50.095c4.464 1.247 9.165 1.929 14.027 1.929 28.732 0 52.024-23.292 52.024-52.024s-23.292-52.024-52.024-52.024z" fill="#ffca28"/><g fill="#ffca28"><path d="m330.058 30.354c-4.143 0-7.5 3.357-7.5 7.5v13.476c0 4.143 3.357 7.5 7.5 7.5s7.5-3.357 7.5-7.5v-13.476c0-4.142-3.358-7.5-7.5-7.5z"/><path d="m330.058 224.975c-4.143 0-7.5 3.357-7.5 7.5v13.477c0 4.143 3.357 7.5 7.5 7.5s7.5-3.357 7.5-7.5v-13.477c0-4.143-3.358-7.5-7.5-7.5z"/><path d="m398.326 63.026-9.532 9.532c-2.929 2.93-2.929 7.678 0 10.607 1.465 1.464 3.385 2.196 5.304 2.196s3.839-.732 5.304-2.196l9.532-9.532c2.929-2.93 2.929-7.678 0-10.607-2.93-2.927-7.678-2.927-10.608 0z"/><path d="m260.714 200.639-9.532 9.532c-2.929 2.93-2.929 7.678 0 10.607 1.465 1.464 3.385 2.196 5.304 2.196s3.839-.732 5.304-2.196l9.532-9.532c2.929-2.93 2.929-7.678 0-10.607-2.93-2.928-7.678-2.928-10.608 0z"/><path d="m434.105 134.402h-13.475c-4.143 0-7.5 3.357-7.5 7.5s3.357 7.5 7.5 7.5h13.476c4.143 0 7.5-3.357 7.5-7.5s-3.358-7.5-7.501-7.5z"/><path d="m239.485 134.402h-13.477c-4.143 0-7.5 3.357-7.5 7.5s3.357 7.5 7.5 7.5h13.477c4.143 0 7.5-3.357 7.5-7.5s-3.357-7.5-7.5-7.5z"/><path d="m399.401 200.639c-2.93-2.928-7.678-2.928-10.607 0-2.929 2.93-2.929 7.678 0 10.607l9.532 9.532c1.465 1.464 3.385 2.196 5.304 2.196s3.839-.732 5.304-2.196c2.929-2.93 2.929-7.678 0-10.607z"/><path d="m261.789 63.026c-2.93-2.928-7.678-2.928-10.607 0-2.929 2.93-2.929 7.678 0 10.607l9.532 9.532c1.465 1.464 3.385 2.196 5.304 2.196s3.839-.732 5.304-2.196c2.929-2.93 2.929-7.678 0-10.607z"/></g><path d="m489.354 384.046c14.166-15.083 22.802-35.391 22.644-57.724-.32-45.167-37.153-82.259-82.441-83.001-15.12-.248-29.337 3.504-41.671 10.253-1.638.896-3.674.566-4.95-.794-9.621-10.263-21.649-18.246-35.196-23.051-1.459-.518-2.463-1.843-2.655-3.376-8.369-67.009-65.683-118.866-135.146-118.866-65.851 0-120.781 46.604-133.447 108.54-.309 1.513-1.413 2.753-2.906 3.162-42.417 11.609-73.586 50.328-73.586 96.313 0 25.447 9.544 48.671 25.258 66.307 1.688 1.895 1.254 4.901-.936 6.187-4.866 2.857-8.131 8.134-8.131 14.172.001 9.043 7.88 16.435 16.948 16.435h444.985c9.098 0 16.822-7.159 16.934-16.231.061-4.957-2.084-9.408-5.513-12.456-1.728-1.536-1.772-4.186-.191-5.87z" fill="#f5f5f5"/><g fill="#e6e6e6"><g><path d="m317.389 230.783c1.917 15.099 32.665 25.042 49.257 28.86 6.286 1.446 20.262-4.482 21.24-6.068-1.638.896-3.674.566-4.95-.794-9.621-10.263-21.649-18.246-35.196-23.051-1.459-.518-2.463-1.843-2.655-3.376-8.369-67.009-65.683-118.866-135.146-118.866-5.327 0-10.581.31-15.749.903 62.905 7.442 115.32 60.325 123.199 122.392z"/><path d="m489.544 389.915c-1.727-1.535-1.771-4.185-.19-5.869 14.166-15.083 22.802-35.391 22.644-57.724-.32-45.167-37.153-82.259-82.441-83.001-.558-.009-1.112-.002-1.668 0 37.087 6.501 52.911 41.835 53.203 83.001.158 22.332-8.478 42.64-22.644 57.724-1.581 1.684-1.537 4.334.19 5.869 3.43 3.048 5.574 7.499 5.514 12.456-.112 9.072-7.835 16.231-16.934 16.231h30.905c9.098 0 16.822-7.159 16.934-16.231.061-4.957-2.083-9.408-5.513-12.456z"/></g><g><path d="m203.657 249.453c-30.829-38.677-79.74-34.985-81.806-34.805-4.12.352-7.17 3.971-6.828 8.092s3.949 7.187 8.086 6.855c.425-.037 43.086-3.076 68.817 29.207 9.269 11.627 14.078 25.199 14.294 40.339.059 4.104 3.404 7.393 7.497 7.393.036 0 .072 0 .109-.001 4.142-.059 7.451-3.464 7.392-7.606-.264-18.541-6.172-35.186-17.561-49.474z"/><path d="m364.666 281.463c-2.673-3.164-7.405-3.56-10.569-.888-1.27 1.073-30.931 26.778-16.457 70.199 1.048 3.143 3.974 5.13 7.114 5.13.786 0 1.586-.125 2.373-.387 3.93-1.31 6.053-5.558 4.743-9.487-11.167-33.5 10.916-53.139 11.934-54.02 3.14-2.677 3.528-7.392.862-10.547z"/></g><g><path d="m142.592 0h-23.726c-4.143 0-7.5 3.357-7.5 7.5s3.357 7.5 7.5 7.5h23.726c9.372 0 16.997 7.625 16.997 16.997s-7.625 16.997-16.997 16.997h-104.378c-4.143 0-7.5 3.357-7.5 7.5s3.357 7.5 7.5 7.5h104.378c17.644 0 31.997-14.354 31.997-31.997s-14.354-31.997-31.997-31.997z"/><path d="m80.232 93.233h-72.732c-4.143 0-7.5 3.357-7.5 7.5s3.357 7.5 7.5 7.5h72.732c4.143 0 7.5-3.357 7.5-7.5s-3.357-7.5-7.5-7.5z"/></g><g><path d="m480.003 448.006h-104.378c-4.143 0-7.5 3.357-7.5 7.5s3.357 7.5 7.5 7.5h104.378c9.372 0 16.997 7.625 16.997 16.997s-7.625 16.997-16.997 16.997h-23.727c-4.143 0-7.5 3.357-7.5 7.5s3.357 7.5 7.5 7.5h23.727c17.643 0 31.997-14.354 31.997-31.997s-14.354-31.997-31.997-31.997z"/><path d="m326.706 448.006h-155.9c-4.143 0-7.5 3.357-7.5 7.5s3.357 7.5 7.5 7.5h155.9c4.143 0 7.5-3.357 7.5-7.5s-3.357-7.5-7.5-7.5z"/></g></g></g></svg>